<svg version="1.1" viewBox="0.0 0.0 30236.220472440946 22677.165354330707" fill="none" stroke="none" stroke-linecap="square" stroke-miterlimit="10" xmlns:xlink="http://www.w3.org/1999/xlink" xmlns="http://www.w3.org/2000/svg"><clipPath id="p.0"><path d="m0 0l30236.22 0l0 22677.166l-30236.22 0l0 -22677.166z" clip-rule="nonzero"/></clipPath><g clip-path="url(#p.0)"><path fill="#000000" fill-opacity="0.0" d="m0 0l30236.22 0l0 22677.166l-30236.22 0z" fill-rule="evenodd"/><path fill="#cfe2f3" d="m4703.983 5304.4736l0 0c-46.38672 -352.6001 105.910645 -701.65234 392.2671 -899.0415c286.35693 -197.38916 656.55176 -208.49707 953.49756 -28.61084l0 0c105.1875 -205.01611 297.71094 -346.56567 519.33594 -381.83252c221.625 -35.266846 446.3208 39.891113 606.1211 202.73975l0 0c89.60596 -185.88062 265.54932 -310.7688 465.3955 -330.3474c199.84619 -19.578613 395.3125 68.923096 517.0376 234.09985l0 0c161.88672 -197.03296 419.45117 -279.9922 661.2461 -212.98047c241.79395 67.01172 424.38867 271.9585 468.7744 526.1587l0 0c198.33887 55.958008 363.5498 198.21143 452.9502 390.00586c89.399414 191.79492 94.2168 414.31592 13.208008 610.0718l0 0c195.30469 262.9214 240.99219 613.26074 120.01074 920.27783c-120.981445 307.0171 -390.4541 524.58594 -707.8574 571.51416c-2.2373047 288.14648 -155.01758 552.5459 -399.4541 691.2881c-244.43652 138.7417 -542.3594 130.16016 -778.9346 -22.436035l0 0c-100.76904 345.10498 -384.3994 599.0303 -728.35254 652.0703c-343.95312 53.04004 -686.56885 -104.31348 -879.8242 -404.07812l0 0c-236.89062 147.75488 -521.13965 190.31836 -788.62646 118.08887c-267.48682 -72.22949 -495.6792 -253.16748 -633.10205 -501.99805l0 0c-242.07275 29.300293 -476.12354 -100.42578 -585.99365 -324.7959c-109.87012 -224.36963 -72.17139 -495.6206 94.38672 -679.13184l0 0c-215.93506 -131.4585 -326.11816 -392.31592 -273.09326 -646.5454c53.02539 -254.229 257.24268 -444.2212 506.16113 -470.90234z" fill-rule="evenodd"/><path fill="#000000" fill-opacity="0.0" d="m4466.13 6435.5107l0 0c101.90039 62.036133 219.61914 90.17676 337.35107 80.64453m154.20312 923.30566c50.628906 -6.1279297 100.25488 -19.10498 147.59814 -38.59619m1274.0596 422.48926c-35.609375 -55.234375 -65.42285 -114.256836 -88.933105 -176.0625m1697.1709 -71.93994l0 0c18.371582 -62.91797 30.274902 -127.67383 35.51123 -193.18799m1142.833 -475.64014c2.381836 -306.77637 -166.07422 -587.66406 -433.01172 -722.0132m1020.85254 -769.7461c-43.229492 104.46338 -109.22461 197.13086 -192.81055 270.7378m-273.30664 -1270.8428l0 0c7.366211 42.18457 10.774414 85.00293 10.1796875 127.862305m-1140.1812 -441.02783l0 0c-40.382812 49.15039 -73.65283 104.07471 -98.773926 163.06348m-883.66846 -66.836914l0 0c-21.520508 44.64258 -37.590332 91.881836 -47.839844 140.62988m-1077.6338 38.46631l0 0c62.833984 38.063477 120.96338 83.87744 173.11182 136.43506m-1518.8589 791.22217l0 0c6.3935547 48.597168 16.495117 96.595215 30.210938 143.54541" fill-rule="evenodd"/><path stroke="#000000" stroke-width="1.0" stroke-linejoin="round" stroke-linecap="butt" d="m4703.983 5304.4736l0 0c-46.38672 -352.6001 105.910645 -701.65234 392.2671 -899.0415c286.35693 -197.38916 656.55176 -208.49707 953.49756 -28.61084l0 0c105.1875 -205.01611 297.71094 -346.56567 519.33594 -381.83252c221.625 -35.266846 446.3208 39.891113 606.1211 202.73975l0 0c89.60596 -185.88062 265.54932 -310.7688 465.3955 -330.3474c199.84619 -19.578613 395.3125 68.923096 517.0376 234.09985l0 0c161.88672 -197.03296 419.45117 -279.9922 661.2461 -212.98047c241.79395 67.01172 424.38867 271.9585 468.7744 526.1587l0 0c198.33887 55.958008 363.5498 198.21143 452.9502 390.00586c89.399414 191.79492 94.2168 414.31592 13.208008 610.0718l0 0c195.30469 262.9214 240.99219 613.26074 120.01074 920.27783c-120.981445 307.0171 -390.4541 524.58594 -707.8574 571.51416c-2.2373047 288.14648 -155.01758 552.5459 -399.4541 691.2881c-244.43652 138.7417 -542.3594 130.16016 -778.9346 -22.436035l0 0c-100.76904 345.10498 -384.3994 599.0303 -728.35254 652.0703c-343.95312 53.04004 -686.56885 -104.31348 -879.8242 -404.07812l0 0c-236.89062 147.75488 -521.13965 190.31836 -788.62646 118.08887c-267.48682 -72.22949 -495.6792 -253.16748 -633.10205 -501.99805l0 0c-242.07275 29.300293 -476.12354 -100.42578 -585.99365 -324.7959c-109.87012 -224.36963 -72.17139 -495.6206 94.38672 -679.13184l0 0c-215.93506 -131.4585 -326.11816 -392.31592 -273.09326 -646.5454c53.02539 -254.229 257.24268 -444.2212 506.16113 -470.90234z" fill-rule="evenodd"/><path stroke="#000000" stroke-width="1.0" stroke-linejoin="round" stroke-linecap="butt" d="m4466.13 6435.5107l0 0c101.90039 62.036133 219.61914 90.17676 337.35107 80.64453m154.20312 923.30566c50.628906 -6.1279297 100.25488 -19.10498 147.59814 -38.59619m1274.0596 422.48926c-35.609375 -55.234375 -65.42285 -114.256836 -88.933105 -176.0625m1697.1709 -71.93994l0 0c18.371582 -62.91797 30.274902 -127.67383 35.51123 -193.18799m1142.833 -475.64014c2.381836 -306.77637 -166.07422 -587.66406 -433.01172 -722.0132m1020.85254 -769.7461c-43.229492 104.46338 -109.22461 197.13086 -192.81055 270.7378m-273.30664 -1270.8428l0 0c7.366211 42.18457 10.774414 85.00293 10.1796875 127.862305m-1140.1812 -441.02783l0 0c-40.382812 49.15039 -73.65283 104.07471 -98.773926 163.06348m-883.66846 -66.836914l0 0c-21.520508 44.64258 -37.590332 91.881836 -47.839844 140.62988m-1077.6338 38.46631l0 0c62.833984 38.063477 120.96338 83.87744 173.11182 136.43506m-1518.8589 791.22217l0 0c6.3935547 48.597168 16.495117 96.595215 30.210938 143.54541" fill-rule="evenodd"/><path fill="#000000" fill-opacity="0.0" d="m4857.007 5045.9834l21519.496 0l0 1323.3384l-21519.496 0z" fill-rule="evenodd"/><path fill="#000000" d="m5175.9443 5793.026l50.25 -6.890625q2.0 48.234375 18.078125 66.03125q16.078125 17.796875 44.515625 17.796875q20.953125 0 36.171875 -9.609375q15.21875 -9.625 20.953125 -26.125q5.75 -16.515625 5.75 -52.6875l0 -289.98438l55.6875 0l0 286.82812q0 52.828125 -12.78125 81.828125q-12.765625 29.0 -40.46875 44.21875q-27.703125 15.203125 -65.03125 15.203125q-55.40625 0 -84.84375 -31.859375q-29.421875 -31.875 -28.28125 -94.75zm296.59375 -33.015625q0 -84.703125 47.078125 -125.46875q39.328125 -33.875 95.890625 -33.875q62.875 0 102.78125 41.203125q39.921875 41.1875 39.921875 113.828125q0 58.859375 -17.65625 92.59375q-17.65625 33.734375 -51.40625 52.40625q-33.734375 18.65625 -73.640625 18.65625q-64.015625 0 -103.5 -41.046875q-39.46875 -41.0625 -39.46875 -118.296875zm53.109375 0q0 58.5625 25.546875 87.703125q25.5625 29.140625 64.3125 29.140625q38.484375 0 64.03125 -29.28125q25.546875 -29.28125 25.546875 -89.28125q0 -56.5625 -25.703125 -85.703125q-25.6875 -29.140625 -63.875 -29.140625q-38.75 0 -64.3125 29.0q-25.546875 28.984375 -25.546875 87.5625zm290.8457 269.875l-5.75 -48.515625q16.9375 4.59375 29.578125 4.59375q17.21875 0 27.546875 -5.75q10.34375 -5.734375 16.953125 -16.0625q4.875 -7.765625 15.796875 -38.484375q1.421875 -4.296875 4.59375 -12.625l-115.71875 -305.48438l55.703125 0l63.453125 176.5625q12.34375 33.59375 22.109375 70.640625q8.90625 -35.609375 21.25 -69.484375l65.171875 -177.71875l51.671875 0l-115.984375 310.07812q-18.671875 50.234375 -29.0 69.1875q-13.78125 25.5625 -31.59375 37.46875q-17.796875 11.921875 -42.484375 11.921875q-14.921875 0 -33.296875 -6.328125zm505.01562 -215.60938l53.40625 6.59375q-12.625 46.796875 -46.796875 72.640625q-34.171875 25.84375 -87.28125 25.84375q-66.890625 0 -106.09375 -41.203125q-39.1875 -41.203125 -39.1875 -115.5625q0 -76.9375 39.625 -119.421875q39.625 -42.5 102.78125 -42.5q61.15625 0 99.90625 41.625q38.765625 41.625 38.765625 117.140625q0 4.59375 -0.28125 13.78125l-227.39062 0q2.875 50.25 28.421875 76.953125q25.546875 26.6875 63.734375 26.6875q28.421875 0 48.515625 -14.921875q20.109375 -14.9375 31.875 -47.65625zm-169.67188 -83.546875l170.25 0q-3.4375 -38.484375 -19.515625 -57.71875q-24.703125 -29.859375 -64.03125 -29.859375q-35.609375 0 -59.875 23.828125q-24.25 23.828125 -26.828125 63.75zm487.79883 181.73438l0 -44.796875q-35.609375 51.6875 -96.765625 51.6875q-26.984375 0 -50.390625 -10.328125q-23.390625 -10.34375 -34.734375 -25.984375q-11.34375 -15.65625 -15.9375 -38.34375q-3.15625 -15.203125 -3.15625 -48.234375l0 -188.90625l51.6875 0l0 169.10938q0 40.46875 3.15625 54.546875q4.875 20.375 20.65625 32.015625q15.796875 11.625 39.0625 11.625q23.25 0 43.625 -11.90625q20.390625 -11.921875 28.859375 -32.453125q8.484375 -20.53125 8.484375 -59.578125l0 -163.35938l51.671875 0l0 304.90625l-46.21875 0zm92.73633 0l111.390625 -158.48438l-103.0625 -146.42188l64.59375 0l46.796875 71.484375q13.203125 20.390625 21.25 34.171875q12.625 -18.953125 23.25 -33.59375l51.390625 -72.0625l61.734375 0l-105.375 143.54688l113.40625 161.35938l-63.4375 0l-62.59375 -94.75l-16.65625 -25.546875l-80.109375 120.296875l-62.578125 0zm749.06836 -49.671875l0 49.671875l-278.21875 0q-0.5625 -18.65625 6.03125 -35.890625q10.625 -28.421875 34.015625 -55.984375q23.40625 -27.5625 67.625 -63.734375q68.625 -56.28125 92.734375 -89.15625q24.125 -32.875 24.125 -62.15625q0 -30.71875 -21.96875 -51.8125q-21.96875 -21.109375 -57.28125 -21.109375q-37.328125 0 -59.71875 22.390625q-22.390625 22.390625 -22.6875 62.015625l-53.109375 -5.453125q5.453125 -59.4375 41.046875 -90.578125q35.609375 -31.15625 95.625 -31.15625q60.578125 0 95.890625 33.59375q35.3125 33.59375 35.3125 83.265625q0 25.265625 -10.34375 49.671875q-10.328125 24.390625 -34.3125 51.390625q-23.96875 26.984375 -79.65625 74.0625q-46.515625 39.046875 -59.734375 52.984375q-13.203125 13.921875 -21.8125 27.984375l206.4375 0zm55.408203 -157.90625q0 -74.65625 15.359375 -120.15625q15.359375 -45.515625 45.640625 -70.203125q30.296875 -24.6875 76.234375 -24.6875q33.875 0 59.421875 13.640625q25.5625 13.640625 42.21875 39.34375q16.65625 25.6875 26.125 62.578125q9.46875 36.890625 9.46875 99.484375q0 74.078125 -15.21875 119.578125q-15.203125 45.5 -45.5 70.34375q-30.28125 24.828125 -76.515625 24.828125q-60.859375 0 -95.609375 -43.640625q-41.625 -52.53125 -41.625 -171.10938zm53.109375 0q0 103.640625 24.265625 137.95312q24.265625 34.3125 59.859375 34.3125q35.609375 0 59.859375 -34.453125q24.265625 -34.453125 24.265625 -137.8125q0 -103.9375 -24.265625 -138.09375q-24.25 -34.171875 -60.4375 -34.171875q-35.59375 0 -56.84375 30.140625q-26.703125 38.46875 -26.703125 142.125zm545.5176 157.90625l0 49.671875l-278.21875 0q-0.5625 -18.65625 6.03125 -35.890625q10.625 -28.421875 34.015625 -55.984375q23.40625 -27.5625 67.625 -63.734375q68.625 -56.28125 92.734375 -89.15625q24.125 -32.875 24.125 -62.15625q0 -30.71875 -21.96875 -51.8125q-21.96875 -21.109375 -57.28125 -21.109375q-37.328125 0 -59.71875 22.390625q-22.390625 22.390625 -22.6875 62.015625l-53.109375 -5.453125q5.453125 -59.4375 41.046875 -90.578125q35.609375 -31.15625 95.625 -31.15625q60.578125 0 95.890625 33.59375q35.3125 33.59375 35.3125 83.265625q0 25.265625 -10.34375 49.671875q-10.328125 24.390625 -34.3125 51.390625q-23.96875 26.984375 -79.65625 74.0625q-46.515625 39.046875 -59.734375 52.984375q-13.203125 13.921875 -21.8125 27.984375l206.4375 0zm327.01758 0l0 49.671875l-278.21875 0q-0.5625 -18.65625 6.03125 -35.890625q10.625 -28.421875 34.015625 -55.984375q23.40625 -27.5625 67.625 -63.734375q68.625 -56.28125 92.734375 -89.15625q24.125 -32.875 24.125 -62.15625q0 -30.71875 -21.96875 -51.8125q-21.96875 -21.109375 -57.28125 -21.109375q-37.328125 0 -59.71875 22.390625q-22.390625 22.390625 -22.6875 62.015625l-53.109375 -5.453125q5.453125 -59.4375 41.046875 -90.578125q35.609375 -31.15625 95.625 -31.15625q60.578125 0 95.890625 33.59375q35.3125 33.59375 35.3125 83.265625q0 25.265625 -10.34375 49.671875q-10.328125 24.390625 -34.3125 51.390625q-23.96875 26.984375 -79.65625 74.0625q-46.515625 39.046875 -59.734375 52.984375q-13.203125 13.921875 -21.8125 27.984375l206.4375 0z" fill-rule="nonzero"/><path fill="#000000" fill-opacity="0.0" d="m6089.903 10425.719l21519.023 0l0 42.0166l-21519.023 0z" fill-rule="evenodd"/><path fill="#000000" fill-opacity="0.0" d="m2503.399 8856.622l13486.74 0l0 3922.7402l-13486.74 0z" fill-rule="evenodd"/><path fill="#000000" d="m2512.9302 8879.745l1.59375 -0.21875q0.078125 1.53125 0.578125 2.109375q0.515625 0.5625 1.421875 0.5625q0.65625 0 1.140625 -0.296875q0.484375 -0.3125 0.65625 -0.828125q0.1875 -0.53125 0.1875 -1.6875l0 -9.203125l1.765625 0l0 9.109375q0 1.671875 -0.40625 2.59375q-0.40625 0.921875 -1.28125 1.40625q-0.875 0.484375 -2.0625 0.484375q-1.75 0 -2.6875 -1.015625q-0.9375 -1.015625 -0.90625 -3.015625z" fill-rule="nonzero"/><path fill="#000000" fill-opacity="0.0" d="m3773.6194 9902.685l8219.087 0l0 42.0166l-8219.087 0z" fill-rule="evenodd"/><path fill="#000000" fill-opacity="0.0" d="m3266.5503 9902.685l21519.496 0l0 1323.3379l-21519.496 0z" fill-rule="evenodd"/><path fill="#000000" d="m3585.4878 10649.727l50.25 -6.890625q2.0 48.234375 18.078125 66.03125q16.078125 17.796875 44.515625 17.796875q20.953125 0 36.171875 -9.609375q15.21875 -9.625 20.953125 -26.125q5.75 -16.515625 5.75 -52.6875l0 -289.98438l55.6875 0l0 286.82812q0 52.828125 -12.78125 81.828125q-12.765625 29.0 -40.46875 44.21875q-27.703125 15.203125 -65.03125 15.203125q-55.40625 0 -84.84375 -31.859375q-29.421875 -31.875 -28.28125 -94.75zm524.5469 21.25l53.40625 6.59375q-12.625 46.796875 -46.796875 72.640625q-34.171875 25.84375 -87.28125 25.84375q-66.890625 0 -106.09375 -41.203125q-39.1875 -41.203125 -39.1875 -115.5625q0 -76.9375 39.625 -119.421875q39.625 -42.5 102.78125 -42.5q61.15625 0 99.90625 41.625q38.765625 41.625 38.765625 117.140625q0 4.59375 -0.28125 13.78125l-227.39062 0q2.875 50.25 28.421875 76.953125q25.546875 26.6875 63.734375 26.6875q28.421875 0 48.515625 -14.921875q20.109375 -14.9375 31.875 -47.65625zm-169.67188 -83.546875l170.25 0q-3.4375 -38.484375 -19.515625 -57.71875q-24.703125 -29.859375 -64.03125 -29.859375q-35.609375 0 -59.875 23.828125q-24.25 23.828125 -26.828125 63.75zm536.02344 181.73438l-115.984375 -304.90625l54.546875 0l65.46875 182.59375q10.609375 29.578125 19.515625 61.4375q6.890625 -24.109375 19.234375 -57.984375l67.765625 -186.04688l53.109375 0l-115.421875 304.90625l-48.234375 0zm190.07812 -152.45312q0 -84.703125 47.078125 -125.46875q39.328125 -33.875 95.890625 -33.875q62.875 0 102.78125 41.203125q39.921875 41.1875 39.921875 113.828125q0 58.859375 -17.65625 92.59375q-17.65625 33.734375 -51.40625 52.40625q-33.734375 18.65625 -73.640625 18.65625q-64.015625 0 -103.5 -41.046875q-39.46875 -41.0625 -39.46875 -118.296875zm53.109375 0q0 58.5625 25.546875 87.703125q25.5625 29.140625 64.3125 29.140625q38.484375 0 64.03125 -29.28125q25.546875 -29.28125 25.546875 -89.28125q0 -56.5625 -25.703125 -85.703125q-25.6875 -29.140625 -63.875 -29.140625q-38.75 0 -64.3125 29.0q-25.546875 28.984375 -25.546875 87.5625zm492.9707 152.45312l0 -44.796875q-35.609375 51.6875 -96.765625 51.6875q-26.984375 0 -50.390625 -10.328125q-23.390625 -10.34375 -34.734375 -25.984375q-11.34375 -15.65625 -15.9375 -38.34375q-3.15625 -15.203125 -3.15625 -48.234375l0 -188.90625l51.6875 0l0 169.10938q0 40.46875 3.15625 54.546875q4.875 20.375 20.65625 32.015625q15.796875 11.625 39.0625 11.625q23.25 0 43.625 -11.90625q20.390625 -11.921875 28.859375 -32.453125q8.484375 -20.53125 8.484375 -59.578125l0 -163.35938l51.671875 0l0 304.90625l-46.21875 0zm106.51758 -91.015625l51.09375 -8.03125q4.3125 30.71875 23.96875 47.078125q19.671875 16.359375 55.0 16.359375q35.59375 0 52.8125 -14.484375q17.234375 -14.5 17.234375 -34.03125q0 -17.515625 -15.21875 -27.5625q-10.625 -6.890625 -52.828125 -17.515625q-56.84375 -14.359375 -78.8125 -24.828125q-21.953125 -10.484375 -33.296875 -29.0q-11.34375 -18.515625 -11.34375 -40.921875q0 -20.375 9.328125 -37.75q9.328125 -17.375 25.40625 -28.859375q12.0625 -8.890625 32.875 -15.0625q20.8125 -6.171875 44.65625 -6.171875q35.875 0 63.0 10.34375q27.140625 10.328125 40.0625 27.984375q12.921875 17.65625 17.796875 47.21875l-50.53125 6.890625q-3.4375 -23.53125 -19.953125 -36.734375q-16.5 -13.21875 -46.65625 -13.21875q-35.59375 0 -50.8125 11.78125q-15.21875 11.765625 -15.21875 27.5625q0 10.046875 6.3125 18.078125q6.328125 8.328125 19.8125 13.78125q7.75 2.875 45.65625 13.203125q54.84375 14.65625 76.515625 23.984375q21.671875 9.328125 34.015625 27.125q12.34375 17.796875 12.34375 44.21875q0 25.84375 -15.078125 48.671875q-15.0625 22.8125 -43.484375 35.3125q-28.421875 12.484375 -64.3125 12.484375q-59.4375 0 -90.59375 -24.6875q-31.140625 -24.703125 -39.75 -73.21875zm457.36523 0l51.09375 -8.03125q4.3125 30.71875 23.96875 47.078125q19.671875 16.359375 55.0 16.359375q35.59375 0 52.8125 -14.484375q17.234375 -14.5 17.234375 -34.03125q0 -17.515625 -15.21875 -27.5625q-10.625 -6.890625 -52.828125 -17.515625q-56.84375 -14.359375 -78.8125 -24.828125q-21.953125 -10.484375 -33.296875 -29.0q-11.34375 -18.515625 -11.34375 -40.921875q0 -20.375 9.328125 -37.75q9.328125 -17.375 25.40625 -28.859375q12.0625 -8.890625 32.875 -15.0625q20.8125 -6.171875 44.65625 -6.171875q35.875 0 63.0 10.34375q27.140625 10.328125 40.0625 27.984375q12.921875 17.65625 17.796875 47.21875l-50.53125 6.890625q-3.4375 -23.53125 -19.953125 -36.734375q-16.5 -13.21875 -46.65625 -13.21875q-35.59375 0 -50.8125 11.78125q-15.21875 11.765625 -15.21875 27.5625q0 10.046875 6.3125 18.078125q6.328125 8.328125 19.8125 13.78125q7.75 2.875 45.65625 13.203125q54.84375 14.65625 76.515625 23.984375q21.671875 9.328125 34.015625 27.125q12.34375 17.796875 12.34375 44.21875q0 25.84375 -15.078125 48.671875q-15.0625 22.8125 -43.484375 35.3125q-28.421875 12.484375 -64.3125 12.484375q-59.4375 0 -90.59375 -24.6875q-31.140625 -24.703125 -39.75 -73.21875zm295.4375 -61.4375q0 -84.703125 47.078125 -125.46875q39.328125 -33.875 95.890625 -33.875q62.875 0 102.78125 41.203125q39.921875 41.1875 39.921875 113.828125q0 58.859375 -17.65625 92.59375q-17.65625 33.734375 -51.40625 52.40625q-33.734375 18.65625 -73.640625 18.65625q-64.015625 0 -103.5 -41.046875q-39.46875 -41.0625 -39.46875 -118.296875zm53.109375 0q0 58.5625 25.546875 87.703125q25.5625 29.140625 64.3125 29.140625q38.484375 0 64.03125 -29.28125q25.546875 -29.28125 25.546875 -89.28125q0 -56.5625 -25.703125 -85.703125q-25.6875 -29.140625 -63.875 -29.140625q-38.75 0 -64.3125 29.0q-25.546875 28.984375 -25.546875 87.5625zm492.9707 152.45312l0 -44.796875q-35.609375 51.6875 -96.765625 51.6875q-26.984375 0 -50.390625 -10.328125q-23.390625 -10.34375 -34.734375 -25.984375q-11.34375 -15.65625 -15.9375 -38.34375q-3.15625 -15.203125 -3.15625 -48.234375l0 -188.90625l51.6875 0l0 169.10938q0 40.46875 3.15625 54.546875q4.875 20.375 20.65625 32.015625q15.796875 11.625 39.0625 11.625q23.25 0 43.625 -11.90625q20.390625 -11.921875 28.859375 -32.453125q8.484375 -20.53125 8.484375 -59.578125l0 -163.35938l51.671875 0l0 304.90625l-46.21875 0zm127.18945 0l0 -420.90625l51.671875 0l0 151.01562q36.171875 -41.90625 91.296875 -41.90625q33.890625 0 58.859375 13.359375q24.984375 13.34375 35.75 36.890625q10.765625 23.53125 10.765625 68.328125l0 193.21875l-51.671875 0l0 -193.21875q0 -38.765625 -16.796875 -56.421875q-16.796875 -17.65625 -47.515625 -17.65625q-22.96875 0 -43.21875 11.921875q-20.234375 11.90625 -28.859375 32.296875q-8.609375 20.375 -8.609375 56.265625l0 166.8125l-51.671875 0zm525.9863 -37.609375q-28.71875 24.40625 -55.28125 34.453125q-26.546875 10.046875 -56.984375 10.046875q-50.25 0 -77.234375 -24.546875q-26.984375 -24.546875 -26.984375 -62.734375q0 -22.390625 10.1875 -40.90625q10.1875 -18.53125 26.703125 -29.71875q16.515625 -11.203125 37.1875 -16.9375q15.203125 -4.03125 45.9375 -7.765625q62.578125 -7.453125 92.15625 -17.796875q0.28125 -10.625 0.28125 -13.484375q0 -31.59375 -14.640625 -44.515625q-19.8125 -17.5 -58.859375 -17.5q-36.453125 0 -53.828125 12.78125q-17.375 12.765625 -25.703125 45.203125l-50.53125 -6.890625q6.890625 -32.4375 22.6875 -52.390625q15.796875 -19.953125 45.65625 -30.71875q29.859375 -10.765625 69.1875 -10.765625q39.046875 0 63.453125 9.1875q24.40625 9.1875 35.890625 23.109375q11.484375 13.921875 16.078125 35.171875q2.578125 13.203125 2.578125 47.65625l0 68.90625q0 72.0625 3.296875 91.15625q3.3125 19.09375 13.078125 36.609375l-53.984375 0q-8.03125 -16.078125 -10.328125 -37.609375zm-4.3125 -115.421875q-28.140625 11.484375 -84.40625 19.53125q-31.875 4.59375 -45.078125 10.34375q-13.203125 5.734375 -20.390625 16.78125q-7.171875 11.046875 -7.171875 24.546875q0 20.671875 15.640625 34.453125q15.65625 13.78125 45.796875 13.78125q29.859375 0 53.109375 -13.0625q23.265625 -13.0625 34.171875 -35.75q8.328125 -17.515625 8.328125 -51.671875l0 -18.953125zm132.64258 -208.4375l0 -59.4375l51.6875 0l0 59.4375l-51.6875 0zm0 361.46875l0 -304.90625l51.6875 0l0 304.90625l-51.6875 0zm243.18164 -46.21875l7.46875 45.640625q-21.828125 4.59375 -39.046875 4.59375q-28.140625 0 -43.640625 -8.890625q-15.5 -8.90625 -21.828125 -23.40625q-6.3125 -14.5 -6.3125 -61.015625l0 -175.42188l-37.890625 0l0 -40.1875l37.890625 0l0 -75.515625l51.390625 -31.0l0 106.515625l51.96875 0l0 40.1875l-51.96875 0l0 178.29688q0 22.109375 2.71875 28.421875q2.734375 6.3125 8.90625 10.046875q6.171875 3.734375 17.65625 3.734375q8.625 0 22.6875 -2.0zm259.25586 -51.96875l53.40625 6.59375q-12.625 46.796875 -46.796875 72.640625q-34.171875 25.84375 -87.28125 25.84375q-66.890625 0 -106.09375 -41.203125q-39.1875 -41.203125 -39.1875 -115.5625q0 -76.9375 39.625 -119.421875q39.625 -42.5 102.78125 -42.5q61.15625 0 99.90625 41.625q38.765625 41.625 38.765625 117.140625q0 4.59375 -0.28125 13.78125l-227.39062 0q2.875 50.25 28.421875 76.953125q25.546875 26.6875 63.734375 26.6875q28.421875 0 48.515625 -14.921875q20.109375 -14.9375 31.875 -47.65625zm-169.67188 -83.546875l170.25 0q-3.4375 -38.484375 -19.515625 -57.71875q-24.703125 -29.859375 -64.03125 -29.859375q-35.609375 0 -59.875 23.828125q-24.25 23.828125 -26.828125 63.75zm465.68018 -64.3125l0 -58.859375l58.859375 0l0 58.859375l-58.859375 0zm0 246.04688l0 -58.859375l58.859375 0l0 58.859375l-58.859375 0z" fill-rule="nonzero"/></g></svg>